#!OML:ASF H:\GeneralSubjects\Female5\Project 1\Capture day 1\Session 1\Female5.ASF
:FULLY-SPECIFIED
:DEGREES
399
root 22.1955 15.7148 -0.118223 155.156 -268.257 147.046
lowerback 11.6732 1.71181 6.83489
upperback -10.7479 3.49472 -3.79139
thorax -18.4853 0.400362 -9.32727
lowerneck -15.3516 -0.505687 5.66847
upperneck 33.9984 -0.520515 -2.58815
head 14.1556 0.565527 -2.02686
rclavicle -3.00165e-014 8.74653e-015
rhumerus -62.7636 0.928476 -81.7069
rradius 27.2958
rwrist -6.38175
rhand -23.2337 -21.3594
rfingers 7.12502
rthumb 3.21738 -51.3149
lclavicle -3.00165e-014 8.74653e-015
lhumerus -41.0513 -19.0628 77.9071
lradius 39.8935
lwrist 0.455728
lhand -27.4426 35.3735
lfingers 7.12502
lthumb -0.847549 65.3516
rfemur -20.0161 -0.550214 31.9738
rtibia 11.4545
rfoot -2.2878 -12.3819
rtoes -3.44204
lfemur 4.68361 -5.98813 -28.9856
ltibia 31.093
lfoot -13.5697 -6.51413
ltoes -24.0657
400
root 21.8607 15.67 -0.17392 167.01 -268.493 158.857
lowerback 11.7046 1.68483 6.38826
upperback -10.7658 3.34224 -3.99173
thorax -18.5669 0.366051 -9.28002
lowerneck -15.2288 -0.502903 5.74858
upperneck 33.9023 -0.622769 -2.34278
head 14.0827 0.5631 -1.9549
rclavicle -5.56597e-015 -3.4191e-014
rhumerus -62.6135 0.470925 -81.5834
rradius 27.0553
rwrist -6.48597
rhand -23.327 -21.6781
rfingers 7.12502
rthumb 3.12734 -51.6349
lclavicle -5.56597e-015 -3.4191e-014
lhumerus -40.3879 -19.631 78.3023
lradius 41.4745
lwrist 1.24345
lhand -28.1812 35.1814
lfingers 7.12502
lthumb -1.56091 65.1554
rfemur -21.7941 -0.41605 31.281
rtibia 11.8458
rfoot -0.416261 -12.8859
rtoes -5.83292
lfemur 6.71563 -8.13467 -30.4993
ltibia 26.5269
lfoot -14.1844 -8.36337
ltoes -20.8209
401
root 21.5108 15.6316 -0.230238 188.249 -268.664 180.04
lowerback 11.7884 1.67221 5.65611
upperback -10.7205 3.15078 -4.16501
thorax -18.6162 0.358874 -9.02288
lowerneck -15.144 -0.520068 5.84121
upperneck 33.6891 -0.745096 -2.17546
head 13.9644 0.534913 -1.91977
rclavicle -6.95746e-015 2.54444e-014
rhumerus -62.2201 0.196191 -81.564
rradius 26.9285
rwrist -6.91044
rhand -23.4742 -21.9765
rfingers 7.12502
rthumb 2.98512 -51.9354
lclavicle -6.95746e-015 2.54444e-014
lhumerus -39.6204 -20.0606 78.7813
lradius 42.8624
lwrist 1.99419
lhand -28.9081 34.7698
lfingers 7.12502
lthumb -2.26293 64.7375
rfemur -23.452 0.0140925 30.3132
rtibia 11.8358
rfoot 1.49006 -13.7421
rtoes -7.63966
lfemur 8.10832 -10.1947 -32.1511
ltibia 22.5984
lfoot -15.0377 -10.5024
ltoes -17.6036
402
root 21.1466 15.6023 -0.288051 215.878 -268.584 207.606
lowerback 11.9589 1.67281 4.72442
upperback -10.6278 2.93551 -4.33185
thorax -18.6706 0.368424 -8.63876
lowerneck -15.2035 -0.546711 5.77171
upperneck 33.4912 -0.894534 -1.86758
head 13.887 0.491739 -1.80611
rclavicle 1.76918e-014 1.19271e-014
rhumerus -61.6417 0.05275 -81.6628
rradius 26.9494
rwrist -7.56903
rhand -23.5973 -22.2466
rfingers 7.12502
rthumb 2.86632 -52.2071
lclavicle 1.76918e-014 1.19271e-014
lhumerus -38.8024 -20.4444 79.3259
lradius 44.0334
lwrist 2.65883
lhand -29.5195 34.2543
lfingers 7.12502
lthumb -2.85344 64.2149
rfemur -24.9177 0.798859 29.0468
rtibia 11.3204
rfoot 3.39301 -15.1339
rtoes -8.57139
lfemur 8.8241 -11.9689 -33.7887
ltibia 19.4886
lfoot -15.9319 -12.6705
ltoes -14.8146
403
root 20.7643 15.5859 -0.346929 234.888 -268.277 226.498
lowerback 12.2373 1.68918 3.78135
upperback -10.5128 2.7435 -4.45445
thorax -18.7647 0.391024 -8.20694
lowerneck -15.2866 -0.590369 5.77582
upperneck 33.1878 -1.07082 -1.64915
head 13.7667 0.427363 -1.74571
rclavicle 2.98177e-015 1.74931e-014
rhumerus -60.894 0.0610872 -81.9024
rradius 27.1389
rwrist -8.3787
rhand -23.6385 -22.4939
rfingers 7.12502
rthumb 2.82652 -52.4549
lclavicle 2.98177e-015 1.74931e-014
lhumerus -37.9723 -20.8274 79.9148
lradius 44.9971
lwrist 3.18862
lhand -29.9318 33.7592
lfingers 7.12502
lthumb -3.25156 63.7142
rfemur -26.2498 2.10954 27.5966
rtibia 10.3176
rfoot 5.18685 -17.2852
rtoes -8.76919
lfemur 8.78948 -13.333 -35.0955
ltibia 17.2526
lfoot -16.681 -14.662
ltoes -12.6401
404
root 20.3667 15.5843 -0.407705 244.356 -267.971 235.783
lowerback 12.624 1.718 2.99336
upperback -10.4032 2.60382 -4.53062
thorax -18.9268 0.415647 -7.83152
lowerneck -15.515 -0.631808 5.62806
upperneck 32.9307 -1.2634 -1.26869
head 13.7029 0.35981 -1.5992
rclavicle 4.87022e-015 -9.54166e-015
rhumerus -60.055 0.248214 -82.3301
rradius 27.5144
rwrist -9.2497
rhand -23.6125 -22.6729
rfingers 7.12502
rthumb 2.85155 -52.6336
lclavicle 4.87022e-015 -9.54166e-015
lhumerus -37.2351 -21.2764 80.5152
lradius 45.7869
lwrist 3.55543
lhand -30.1315 33.3316
lfingers 7.12502
lthumb -3.44441 63.2835
rfemur -27.4564 3.88087 26.0364
rtibia 8.90442
rfoot 6.64077 -20.1784
rtoes -8.56244
lfemur 8.0955 -14.2743 -35.9371
ltibia 15.746
lfoot -17.2166 -16.285
ltoes -11.2311
405
root 19.9568 15.5974 -0.469065 246.514 -267.847 237.676
lowerback 13.1104 1.76303 2.4993
upperback -10.3366 2.55453 -4.54395
thorax -19.1924 0.440228 -7.58643
lowerneck -15.7266 -0.676344 5.56554
upperneck 32.6212 -1.46196 -0.95768
head 13.6124 0.288509 -1.49661
rclavicle 2.5842e-014 3.4191e-014
rhumerus -59.2134 0.627931 -82.9552
rradius 28.0772
rwrist -10.0614
rhand -23.5596 -22.6794
rfingers 7.12502
rthumb 2.90264 -52.6394
lclavicle 2.5842e-014 3.4191e-014
lhumerus -36.705 -21.8323 81.1029
lradius 46.4312
lwrist 3.74541
lhand -30.1393 32.9613
lfingers 7.12502
lthumb -3.45194 62.9131
rfemur -28.6175 6.0349 24.5003
rtibia 7.3258
rfoot 7.02097 -23.6861
rtoes -7.43793
lfemur 6.86054 -14.8737 -36.2069
ltibia 14.7925
lfoot -17.4518 -17.6043
ltoes -10.0819
406
root 19.5416 15.6229 -0.530188 243.416 -267.902 234.249
lowerback 13.5934 1.82908 2.25397
upperback -10.2835 2.59585 -4.4764
thorax -19.4556 0.479387 -7.41243
lowerneck -15.942 -0.715413 5.56251
upperneck 32.2623 -1.6344 -0.757863
head 13.5015 0.217664 -1.44501
rclavicle 1.88845e-015 -1.82882e-014
rhumerus -58.3326 1.27562 -83.7356
rradius 28.7876
rwrist -10.7405
rhand -23.4816 -22.464
rfingers 7.12502
rthumb 2.97802 -52.423
lclavicle 1.88845e-015 -1.82882e-014
lhumerus -36.3735 -22.4274 81.6816
lradius 46.9319
lwrist 3.73653
lhand -29.9943 32.5758
lfingers 7.12502
lthumb -3.31193 62.5299
rfemur -29.7933 8.19582 23.0911
rtibia 5.90788
rfoot 5.79391 -27.1198
rtoes -5.82827
lfemur 5.23944 -15.2275 -36.0003
ltibia 14.2442
lfoot -17.4368 -18.652
ltoes -9.33017
407
root 19.1294 15.6563 -0.588695 234.965 -268.033 225.44
lowerback 14.0612 1.92786 2.18973
upperback -10.2686 2.73074 -4.35967
thorax -19.7423 0.538654 -7.31286
lowerneck -16.1512 -0.763416 5.53412
upperneck 31.9401 -1.7906 -0.606167
head 13.406 0.146331 -1.40601
rclavicle -3.71727e-014 -1.59028e-015
rhumerus -57.5093 2.20017 -84.6761
rradius 29.6019
rwrist -11.2784
rhand -23.4176 -22.0397
rfingers 7.12502
rthumb 3.03984 -51.9978
lclavicle -3.71727e-014 -1.59028e-015
lhumerus -36.3307 -23.0682 82.2504
lradius 47.292
lwrist 3.52576
lhand -29.7218 32.1136
lfingers 7.12502
lthumb -3.04878 62.0716
rfemur -31.0308 9.71977 22.093
rtibia 5.10246
rfoot 6.23108 -28.8521
rtoes -13.137
lfemur 3.36697 -15.4159 -35.4538
ltibia 14.0008
lfoot -17.3196 -19.449
ltoes -9.0082
408
root 18.7268 15.6932 -0.64556 222.037 -268.095 212.181
lowerback 14.4619 2.05841 2.22645
upperback -10.2642 2.93803 -4.21679
thorax -19.9851 0.621135 -7.25686
lowerneck -16.3821 -0.818439 5.38866
upperneck 31.7104 -1.91846 -0.446218
head 13.3574 0.0793187 -1.34003
rclavicle 1.96797e-014 -1.11319e-014
rhumerus -56.7236 3.42614 -85.7522
rradius 30.4517
rwrist -11.7022
rhand -23.4452 -21.4792
rfingers 7.12502
rthumb 3.01313 -51.4377
lclavicle 1.96797e-014 -1.11319e-014
lhumerus -36.5405 -23.68 82.7917
lradius 47.4719
lwrist 3.10747
lhand -29.3515 31.5009
lfingers 7.12502
lthumb -2.69117 61.4637
rfemur -32.3002 9.72687 21.9734
rtibia 5.3577
rfoot 6.49678 -28.4829
rtoes -20.0646
lfemur 1.37285 -15.5291 -34.7511
ltibia 14.0032
lfoot -17.2601 -19.965
ltoes -9.06239
409
root 18.3403 15.7299 -0.701453 210.04 -267.964 199.936
lowerback 14.7341 2.21769 2.23005
upperback -10.2334 3.17526 -4.08552
thorax -20.1018 0.72833 -7.19149
lowerneck -16.5907 -0.884648 5.17452
upperneck 31.5523 -2.01489 -0.341782
head 13.3352 0.0142492 -1.27943
rclavicle 4.41302e-014 -1.27222e-014
rhumerus -55.9317 4.91091 -86.8927
rradius 31.2685
rwrist -12.0075
rhand -23.6141 -20.9099
rfingers 7.12502
rthumb 2.85008 -50.8706
lclavicle 4.41302e-014 -1.27222e-014
lhumerus -36.9233 -24.187 83.2789
lradius 47.4036
lwrist 2.49104
lhand -28.9553 30.672
lfingers 7.12502
lthumb -2.30857 60.6392
rfemur -33.5424 7.94998 22.861
rtibia 6.99145
rfoot 6.58934 -25.888
rtoes -25.839
lfemur -0.63019 -15.6041 -34.1121
ltibia 14.2152
lfoot -17.2889 -20.2407
ltoes -9.38255
410
root 17.9732 15.7651 -0.756815 202.66 -267.684 192.429
lowerback 14.8952 2.39405 2.19246
upperback -10.1864 3.41821 -4.00601
thorax -20.1199 0.845116 -7.15603
lowerneck -16.8208 -0.958914 4.76571
upperneck 31.5735 -2.08875 -0.126539
head 13.3992 -0.039021 -1.13895
rclavicle 2.99171e-014 1.59028e-015
rhumerus -55.1758 6.50163 -88.0202
rradius 32.019
rwrist -12.1348
rhand -23.8938 -20.4612
rfingers 7.12502
rthumb 2.57993 -50.4253
lclavicle 2.99171e-014 1.59028e-015
lhumerus -37.4692 -24.585 83.6798
lradius 47.0395
lwrist 1.73043
lhand -28.581 29.7181
lfingers 7.12502
lthumb -1.947 59.6889
rfemur -34.6997 5.15303 24.3294
rtibia 10.0199
rfoot 5.96289 -22.075
rtoes -29.7204
lfemur -2.56862 -15.5402 -33.6287
ltibia 14.6472
lfoot -17.2523 -20.3289
ltoes -9.81068
411
root 17.62 15.8002 -0.810427 197.556 -267.34 187.291
lowerback 14.9915 2.58051 2.18313
upperback -10.1397 3.6795 -3.94372
thorax -20.0898 0.96757 -7.15735
lowerneck -16.9632 -1.03927 4.36443
upperneck 31.6703 -2.13349 0.012793
head 13.4761 -0.0843662 -1.02393
rclavicle -1.40143e-014 -2.70347e-014
rhumerus -54.4243 8.08094 -89.0099
rradius 32.6775
rwrist -11.99
rhand -24.1633 -20.2196
rfingers 7.12502
rthumb 2.31966 -50.1867
lclavicle -1.40143e-014 -2.70347e-014
lhumerus -38.1241 -24.8166 83.9881
lradius 46.3657
lwrist 0.878804
lhand -28.2568 28.7875
lfingers 7.12502
lthumb -1.63397 58.761
rfemur -35.7234 2.47346 25.8126
rtibia 14.2301
rfoot 4.19198 -18.4058
rtoes -31.5355
lfemur -4.48054 -15.3298 -33.1615
ltibia 15.263
lfoot -17.1031 -20.2566
ltoes -10.3027
412
root 17.28 15.8362 -0.862121 193.91 -266.988 183.711
lowerback 15.0536 2.75756 2.24382
upperback -10.0999 3.94135 -3.9072
thorax -20.0403 1.07932 -7.22738
lowerneck -16.9652 -1.11752 4.06582
upperneck 31.7985 -2.1564 0.048429
head 13.5338 -0.119294 -0.962222
rclavicle 1.23246e-014 -1.59028e-014
rhumerus -53.6688 9.52187 -89.8068
rradius 33.2289
rwrist -11.5216
rhand -24.3242 -20.1537
rfingers 7.12502
rthumb 2.16421 -50.1225
lclavicle 1.23246e-014 -1.59028e-014
lhumerus -38.8884 -24.8494 84.1659
lradius 45.4176
lwrist 0.00433792
lhand -28.0149 28.0041
lfingers 7.12502
lthumb -1.40033 57.9792
rfemur -36.3884 0.324491 26.9842
rtibia 19.1988
rfoot 1.541 -15.5603
rtoes -31.5171
lfemur -6.27106 -14.9571 -32.7085
ltibia 15.921
lfoot -16.7841 -20.05
ltoes -10.8437
